<?xml version="1.0" encoding="utf-8"?>
<!-- Generator: Adobe Illustrator 18.1.0, SVG Export Plug-In . SVG Version: 6.00 Build 0)  -->
<!DOCTYPE svg PUBLIC "-//W3C//DTD SVG 1.1//EN" "http://www.w3.org/Graphics/SVG/1.1/DTD/svg11.dtd">
<svg version="1.1" id="Layer_1" xmlns="http://www.w3.org/2000/svg" xmlns:xlink="http://www.w3.org/1999/xlink" x="0px" y="0px"
	 viewBox="0 0 139 58" enable-background="new 0 0 139 58" xml:space="preserve">
<polygon fill="#929AA5" points="21.1,30.9 12,25.6 12,5.4 21.1,5.4 "/>
<polygon fill="#246F96" points="32.8,37.7 23.6,32.4 23.6,9.5 32.8,9.5 "/>
<polygon fill="#929AA5" points="44.4,47.2 35.3,47.2 35.3,38.8 44.4,20.4 "/>
<polygon fill="#246F96" points="9.4,47.2 0.3,47.2 0.3,39.2 9.4,29.5 "/>
<polygon fill="#00527D" points="49.5,14.6 56,14.6 76,41.4 76.1,41.4 76.1,14.6 81,14.6 81,47.2 74.8,47.2 54.5,20.4 54.4,20.4 
	54.4,47.2 49.5,47.2 "/>
<polygon fill="#00527D" points="85.5,14.6 109,14.6 109,18.8 90.4,18.8 90.4,28.5 107.7,28.5 107.7,32.6 90.4,32.6 90.4,43 
	109.9,43 109.9,47.2 85.5,47.2 "/>
<path fill="#00527D" d="M114.2,14.6H127c2.3,0,4.2,0.3,5.8,0.9c1.5,0.6,2.7,1.3,3.6,2.2c0.9,0.9,1.5,1.9,1.8,2.9
	c0.3,1.1,0.5,2.1,0.5,3.1c0,1-0.2,2.1-0.5,3.1c-0.3,1.1-1,2.1-1.8,2.9c-0.9,0.9-2.1,1.6-3.6,2.2c-1.5,0.6-3.4,0.8-5.8,0.8h-7.9v14.3
	h-4.9V14.6z M119.2,29h6.5c1,0,1.9-0.1,2.9-0.2c0.9-0.1,1.8-0.4,2.5-0.8c0.7-0.4,1.3-0.9,1.8-1.6c0.4-0.7,0.7-1.6,0.7-2.7
	c0-1.1-0.2-2-0.7-2.7c-0.4-0.7-1-1.2-1.8-1.6c-0.7-0.4-1.6-0.6-2.5-0.8c-0.9-0.1-1.9-0.2-2.9-0.2h-6.5V29z"/>
<path fill="#66717E" d="M0.3,52.3h1.4l1.2,2.1c0.4,0.8,0.6,1,0.8,1.5l-0.1-3.6H5v5.7H3.7l-1.1-1.8c-0.5-0.8-0.6-1-1-1.8l0,3.6H0.3
	V52.3z"/>
<path fill="#66717E" d="M9.2,52.3l2.1,5.6H9.8L9.5,57H7.4l-0.3,0.9H5.6l2.1-5.6H9.2z M8.5,53.6c-0.1,0.3-0.2,0.6-0.2,0.9
	c-0.1,0.4-0.3,1.1-0.5,1.5h1.4L8.5,53.6z"/>
<polygon fill="#66717E" points="10.9,52.3 15.3,52.3 15.3,53.4 13.8,53.4 13.8,57.9 12.4,57.9 12.4,53.4 10.9,53.4 "/>
<rect x="15.9" y="52.3" fill="#66717E" width="1.4" height="5.7"/>
<path fill="#66717E" d="M20.8,58.1c-1.8,0-2.8-1.4-2.8-3c0-1.5,1-3,2.8-3c0.3,0,0.7,0,1,0.2c1.7,0.6,1.8,2.5,1.8,2.9
	c0,1-0.4,1.9-1.1,2.4C22,58,21.4,58.1,20.8,58.1 M21.8,53.7c-0.2-0.3-0.6-0.4-1-0.4c-0.9,0-1.4,0.8-1.4,1.8c0,1.3,0.8,1.8,1.4,1.8
	c0.7,0,1.4-0.5,1.4-1.7C22.2,54.7,22.1,54.1,21.8,53.7"/>
<path fill="#66717E" d="M24.3,52.3h1.4l1.2,2.1c0.4,0.8,0.6,1,0.8,1.5l-0.1-3.6H29v5.7h-1.4l-1.1-1.8c-0.5-0.8-0.6-1-1-1.8l0,3.6
	h-1.4V52.3z"/>
<path fill="#66717E" d="M33.2,52.3l2.1,5.6h-1.5L33.5,57h-2.1l-0.3,0.9h-1.5l2.1-5.6H33.2z M32.4,53.6c-0.1,0.3-0.2,0.6-0.2,0.9
	c-0.1,0.4-0.3,1.1-0.5,1.5h1.4L32.4,53.6z"/>
<polygon fill="#66717E" points="35.9,52.3 37.3,52.3 37.3,56.8 39.5,56.8 39.5,57.9 35.9,57.9 "/>
<polygon fill="#66717E" points="43.3,52.3 47.5,52.3 47.5,53.4 44.8,53.4 44.8,54.4 47.3,54.4 47.3,55.5 44.8,55.5 44.8,56.8 
	47.8,56.8 47.8,57.9 43.3,57.9 "/>
<polygon fill="#66717E" points="51.9,52.3 53.4,52.3 51.5,57.9 50,57.9 48.1,52.3 49.6,52.3 50.7,56.3 "/>
<path fill="#66717E" d="M56.2,52.3l2.1,5.6h-1.5L56.5,57h-2.1l-0.3,0.9h-1.5l2.1-5.6H56.2z M55.4,53.6c-0.1,0.3-0.2,0.6-0.2,0.9
	c-0.1,0.4-0.3,1.1-0.5,1.5h1.4L55.4,53.6z"/>
<polygon fill="#66717E" points="58.9,52.3 60.3,52.3 60.3,56.8 62.5,56.8 62.5,57.9 58.9,57.9 "/>
<path fill="#66717E" d="M67.9,52.3v3.2c0,0.5,0,1.1-0.3,1.6c-0.6,1-1.9,1-2.1,1c-0.4,0-0.9-0.1-1.3-0.3c-1.1-0.6-1.1-1.6-1.1-2.3
	v-3.2h1.4v3.5c0,0.3,0,0.5,0.1,0.7c0.2,0.3,0.6,0.4,0.9,0.4c1,0,1-0.7,1-1.1v-3.5H67.9z"/>
<path fill="#66717E" d="M71.7,52.3l2.1,5.6h-1.5L72,57h-2.1l-0.3,0.9h-1.5l2.1-5.6H71.7z M70.9,53.6c-0.1,0.3-0.2,0.6-0.2,0.9
	c-0.1,0.4-0.3,1.1-0.5,1.5h1.4L70.9,53.6z"/>
<polygon fill="#66717E" points="73.3,52.3 77.7,52.3 77.7,53.4 76.2,53.4 76.2,57.9 74.8,57.9 74.8,53.4 73.3,53.4 "/>
<rect x="78.1" y="52.3" fill="#66717E" width="1.4" height="5.7"/>
<path fill="#66717E" d="M82.9,58.1c-1.8,0-2.8-1.4-2.8-3c0-1.5,1-3,2.8-3c0.3,0,0.7,0,1,0.2c1.7,0.6,1.8,2.5,1.8,2.9
	c0,1-0.4,1.9-1.1,2.4C84.1,58,83.5,58.1,82.9,58.1 M83.9,53.7c-0.2-0.3-0.6-0.4-1-0.4c-0.9,0-1.4,0.8-1.4,1.8c0,1.3,0.8,1.8,1.4,1.8
	c0.7,0,1.4-0.5,1.4-1.7C84.4,54.7,84.2,54.1,83.9,53.7"/>
<path fill="#66717E" d="M86.4,52.3h1.4l1.2,2.1c0.4,0.8,0.6,1,0.8,1.5l-0.1-3.6h1.4v5.7h-1.4l-1.1-1.8c-0.5-0.8-0.6-1-1-1.8l0,3.6
	h-1.4V52.3z"/>
<path fill="#66717E" d="M95.7,52.3H98c0.9,0,1.8,0,2.2,0.7c0.2,0.3,0.3,0.8,0.3,1.2c0,0.3-0.1,0.6-0.2,0.9c-0.5,1-1.5,1-2.3,1h-0.9
	v1.8h-1.4V52.3z M97.1,53.3v1.7H98c0.5,0,1.2,0,1.2-0.9c0-0.8-0.7-0.8-1.1-0.8H97.1z"/>
<polygon fill="#66717E" points="101.3,52.3 102.7,52.3 102.7,56.8 104.9,56.8 104.9,57.9 101.3,57.9 "/>
<path fill="#66717E" d="M109.1,52.3l2.1,5.6h-1.5l-0.3-0.9h-2.1l-0.3,0.9h-1.5l2.1-5.6H109.1z M108.3,53.6c-0.1,0.3-0.2,0.6-0.2,0.9
	c-0.1,0.4-0.3,1.1-0.5,1.5h1.4L108.3,53.6z"/>
<polygon fill="#66717E" points="110.6,52.3 115,52.3 115,53.4 113.5,53.4 113.5,57.9 112.1,57.9 112.1,53.4 110.6,53.4 "/>
<polygon fill="#66717E" points="119.9,52.3 119.9,53.4 117,53.4 117,54.6 119.7,54.6 119.7,55.7 117,55.7 117,57.9 115.6,57.9 
	115.6,52.3 "/>
<path fill="#66717E" d="M123.2,58.1c-1.8,0-2.8-1.4-2.8-3c0-1.5,1-3,2.8-3c0.3,0,0.7,0,1,0.2c1.7,0.6,1.8,2.5,1.8,2.9
	c0,1-0.4,1.9-1.1,2.4C124.4,58,123.7,58.1,123.2,58.1 M124.1,53.7c-0.2-0.3-0.6-0.4-1-0.4c-0.9,0-1.4,0.8-1.4,1.8
	c0,1.3,0.8,1.8,1.4,1.8c0.7,0,1.4-0.5,1.4-1.7C124.6,54.7,124.5,54.1,124.1,53.7"/>
<path fill="#66717E" d="M126.6,52.3h2.5c0.6,0,1.3,0,1.8,0.6c0.3,0.3,0.4,0.7,0.4,1.3c0,1.1-0.8,1.4-1.2,1.6l1.3,2.3h-1.6l-1.1-2
	h-0.9v2h-1.4V52.3z M128.1,53.4v1.5h1.2c0.2,0,0.8,0,0.8-0.8c0-0.7-0.5-0.7-0.8-0.8H128.1z"/>
<path fill="#66717E" d="M138.7,52.3v5.7h-1.4l0.1-4l0-0.6l0,0.2c-0.1,0.3-0.1,0.4-0.1,0.6l-1.1,3.8h-1.2l-1-3.6l-0.2-1
	c0,0.4,0,0.5,0,1.1l0.1,3.6h-1.4v-5.7h2.1l0.9,3.2l0.2,0.9c0.1-0.4,0.1-0.4,0.2-0.7l0.9-3.4H138.7z"/>
<polygon fill="#929AA5" points="35.3,32.9 35.3,-0.1 44.4,-0.1 44.4,14.4 "/>
<polygon fill="#246F96" points="0.3,35.6 0.3,16.5 9.4,16.5 9.4,25.9 "/>
<polygon fill="#929AA5" points="21.1,47.2 12,47.2 12,28.5 21.1,33.8 "/>
<polygon fill="#246F96" points="32.8,47.2 23.6,47.2 23.6,35.3 32.8,40.6 "/>
</svg>
